<?xml version="1.0" encoding="utf-8"?>
<!-- Generator: Adobe Illustrator 22.0.1, SVG Export Plug-In . SVG Version: 6.00 Build 0)  -->
<svg version="1.1" id="Layer_1" xmlns="http://www.w3.org/2000/svg" xmlns:xlink="http://www.w3.org/1999/xlink" x="0px" y="0px"
	 viewBox="0 0 350 156.3" style="enable-background:new 0 0 350 156.3;" xml:space="preserve">
<style type="text/css">
	.qz0{fill:#FF1493;}
	.qz1{font-family: 'Alfa Slab One', cursive;}
	.qz2{font-size:10.5626px;}
	.qz3{fill:#FFCC00;}
	.qz4{fill:#293549;stroke:#41526D;stroke-width:1.3203;stroke-miterlimit:10;}
	.qz5{fill:none;stroke:#FFFAF0;stroke-width:0.3301;stroke-miterlimit:10;}
	.qz6{fill:#FFFFFF;}
	.qz7{fill:#B2DF8A;}
	.qz8{fill:#61E786;}
	.qz9{fill:#CB181D;}
	.qz10{fill:#A6D854;}
	.qz11{fill:#99000D;}
	.qz12{fill:#F768A1;}
	.qz13{fill:none;stroke:#FFFAF0;stroke-width:0.6602;stroke-miterlimit:10;}
	.qz14{fill:#FFFFFF;stroke:#231F20;stroke-width:1.0777;stroke-miterlimit:10;}
	.qz15{fill:#FFFAF0;}
	.qz16{font-family:'Georgia';}
	.qz17{font-size:7.9219px;}
	.qz18{fill:none;stroke:#FFFAF0;stroke-width:0.3716;stroke-miterlimit:10;}
	.qz19{fill:none;stroke:#FFFAF0;stroke-width:0.305;stroke-miterlimit:10;}
	.qz20{fill:none;stroke:#FFFAF0;stroke-width:0.368;stroke-miterlimit:10;}
	.qz21{clip-path:url(#SVGID_2_);fill:none;stroke:#010102;stroke-width:1.3203;stroke-miterlimit:10;}
	.qz22{clip-path:url(#SVGID_4_);fill:none;stroke:#010102;stroke-width:1.3203;stroke-miterlimit:10;}
	.qz23{clip-path:url(#SVGID_6_);fill:none;stroke:#010102;stroke-width:1.3203;stroke-miterlimit:10;}
	.qz24{clip-path:url(#SVGID_8_);fill:none;stroke:#010102;stroke-width:1.3203;stroke-miterlimit:10;}
	.qz25{clip-path:url(#SVGID_10_);fill:none;stroke:#010102;stroke-width:1.3203;stroke-miterlimit:10;}
	.qz26{fill:#D81159;}
	.qz27{fill:#41AB5D;}
</style>
<text transform="matrix(1 0 0 1 7.3333 56.6378)" class="qz0 qz1 qz2">Recordings</text>
<circle class="qz3" cx="115" cy="73.6" r="4.2"/>
<path class="qz4" d="M32.1,155.5c73.8,0,210,0,285.7,0c0-78.9-64-142.9-142.9-142.9S32.1,76.6,32.1,155.5z"/>
<path class="qz5" d="M101.8,36c0,0,6.5,3,11.9,33.6"/>
<path class="qz4" d="M82.6,155.5c47.7,0,135.8,0,184.8,0c0-51-41.4-92.4-92.4-92.4S82.6,104.4,82.6,155.5z"/>
<path class="qz4" d="M127,155.5c24.8,0,70.6,0,96.1,0c0-26.5-21.5-48-48-48S127,128.9,127,155.5z"/>
<path class="qz4" d="M155.3,155.5c10.2,0,28.9,0,39.4,0c0-10.9-8.8-19.7-19.7-19.7S155.3,144.6,155.3,155.5z"/>
<circle class="qz6" cx="150.3" cy="114.2" r="5"/>
<circle class="qz7" cx="103" cy="21.6" r="4.2"/>
<circle class="qz8" cx="95.4" cy="26.7" r="4.2"/>
<circle class="qz9" cx="88.1" cy="31.7" r="4.2"/>
<circle class="qz8" cx="80.9" cy="36.8" r="4.2"/>
<circle class="qz8" cx="74.5" cy="43.2" r="4.2"/>
<circle class="qz10" cx="96.6" cy="15.3" r="4.2"/>
<circle class="qz11" cx="89" cy="20.4" r="4.2"/>
<circle class="qz11" cx="81.7" cy="25.4" r="4.2"/>
<circle class="qz12" cx="74.5" cy="30.5" r="4.2"/>
<circle class="qz9" cx="68.2" cy="36.8" r="4.2"/>
<path class="qz13" d="M148.4,110.7c-2.6-24.4-18.6-33.5-18.6-33.5"/>
<path class="qz14" d="M124.8,83.7"/>
<path class="qz13" d="M123,83.2c0,0,17.8,9.1,24.3,28.3"/>
<path class="qz13" d="M114.5,89.2c0,0,19.9,4.5,32.4,23.4"/>
<path class="qz5" d="M110.2,31.7c0,0,11.2,16.1,15.4,39.8"/>
<path class="qz5" d="M103.4,36.8c0,0,7.7,3.6,17.2,39.6"/>
<path class="qz5" d="M94.7,40.7c0,0,11.1,5.9,30.9,31.9"/>
<path class="qz5" d="M112.1,70.4c-11.9-19.8-23.7-23.1-23.7-23.1"/>
<path class="qz5" d="M93,41.5c0,0,6.8,8,12.6,36.3"/>
<path class="qz5" d="M81.7,53.3c0,0,23.1,7.1,30.2,19.3"/>
<path class="qz5" d="M109,31.7c0,0,10.2,17.3,12,46.1"/>
<path class="qz5" d="M95.4,38.2c0,0,6.7,4,12.5,38.3"/>
<path class="qz13" d="M152.3,116.9c0,0,8.2,1.7,13.4,21.2"/>
<text transform="matrix(1 0 0 1 160.8134 152.5201)" class="qz0 qz1 qz2">State</text>
<text transform="matrix(1 0 0 1 88.3984 123.4732)" class="qz0 qz1 qz2">Locations</text>
<text transform="matrix(1 0 0 1 68.1874 92.4522)" class="qz0 qz1 qz2">People</text>
<text transform="matrix(1 0 0 1 145.0983 35.1515)"><tspan x="0" y="0" class="qz15 qz16 qz17">Recordings of a similar genre are colored similarly.</tspan><tspan x="0" y="9.5" class="qz15 qz16 qz17">Click on the circle to hear the recording or to learn </tspan><tspan x="0" y="19" class="qz15 qz16 qz17">more about it</tspan></text>
<text transform="matrix(1 0 0 1 169.6128 81.4748)"><tspan x="0" y="0" class="qz15 qz16 qz17">Patterns and colors represent information such</tspan><tspan x="0" y="9.5" class="qz15 qz16 qz17">as race or incarceration. Click on the circle to </tspan><tspan x="0" y="19" class="qz15 qz16 qz17">hear all recordings by the person </tspan></text>
<text transform="matrix(1 0 0 1 191.8506 122.5947)"><tspan x="0" y="0" class="qz15 qz16 qz17">These circles represent a distinct location</tspan><tspan x="0" y="9.5" class="qz15 qz16 qz17">where recordings were made. Hover over</tspan><tspan x="0" y="19" class="qz15 qz16 qz17">these circles to bring up their names</tspan></text>
<g>
	<g>
		<path class="qz18" d="M143.2,28.3c0,0-11.2-12.6-35.6-10.4"/>
		<g>
			<polygon class="qz15" points="108.7,16.3 109,16.5 107.7,17.9 109.2,19 108.9,19.3 107.2,17.9 			"/>
		</g>
	</g>
</g>
<g>
	<g>
		<path class="qz19" d="M168.6,75.6c0,0-10.8-4.1-34.6-3.2"/>
		<g>
			<polygon class="qz15" points="135,71.2 135.3,71.4 134.2,72.5 135.3,73.5 135.1,73.7 133.7,72.5 			"/>
		</g>
	</g>
</g>
<g>
	<g>
		<path class="qz20" d="M190.5,115.4c0,0-10.8-5.9-34.8-4.6"/>
		<g>
			<polygon class="qz15" points="156.9,109.3 157.1,109.6 155.9,110.8 157.2,112 157,112.3 155.3,110.8 			"/>
		</g>
	</g>
</g>
<circle class="qz3" cx="127.7" cy="75.2" r="4.2"/>
<circle class="qz8" cx="120.6" cy="80.7" r="4.2"/>
<circle class="qz3" cx="107.9" cy="79.5" r="4.2"/>
<circle class="qz3" cx="113.7" cy="86.5" r="4.2"/>
<circle class="qz3" cx="115" cy="73.6" r="4.2"/>
<g>
	<defs>
		<circle id="SVGID_1_" cx="107.9" cy="79.5" r="4.2"/>
	</defs>
	<clipPath id="SVGID_2_">
		<use xlink:href="#SVGID_1_"  style="overflow:visible;"/>
	</clipPath>
	<line class="qz21" x1="103" y1="78.6" x2="112.5" y2="77.7"/>
	<line class="qz21" x1="103" y1="76.5" x2="112.5" y2="75.6"/>
	<line class="qz21" x1="103" y1="80.9" x2="113.3" y2="79.8"/>
	<line class="qz21" x1="104.4" y1="82.8" x2="112" y2="82"/>
</g>
<g>
	<defs>
		<circle id="SVGID_3_" cx="115" cy="73.6" r="4.2"/>
	</defs>
	<clipPath id="SVGID_4_">
		<use xlink:href="#SVGID_3_"  style="overflow:visible;"/>
	</clipPath>
	<line class="qz22" x1="110.1" y1="72.6" x2="119.6" y2="71.8"/>
	<line class="qz22" x1="110.1" y1="70.5" x2="119.6" y2="69.7"/>
	<line class="qz22" x1="110.1" y1="75" x2="120.4" y2="73.9"/>
	<line class="qz22" x1="111.5" y1="76.9" x2="119.1" y2="76.1"/>
</g>
<g>
	<defs>
		<circle id="SVGID_5_" cx="113.7" cy="86.5" r="4.2"/>
	</defs>
	<clipPath id="SVGID_6_">
		<use xlink:href="#SVGID_5_"  style="overflow:visible;"/>
	</clipPath>
	<line class="qz23" x1="108.7" y1="85.6" x2="118.3" y2="84.7"/>
	<line class="qz23" x1="108.7" y1="83.4" x2="118.3" y2="82.6"/>
	<line class="qz23" x1="108.7" y1="87.9" x2="119.1" y2="86.8"/>
	<line class="qz23" x1="110.2" y1="89.8" x2="117.8" y2="89"/>
</g>
<g>
	<defs>
		<circle id="SVGID_7_" cx="120.6" cy="80.7" r="4.2"/>
	</defs>
	<clipPath id="SVGID_8_">
		<use xlink:href="#SVGID_7_"  style="overflow:visible;"/>
	</clipPath>
	<line class="qz24" x1="115.7" y1="79.8" x2="125.2" y2="78.9"/>
	<line class="qz24" x1="115.7" y1="77.7" x2="125.2" y2="76.8"/>
	<line class="qz24" x1="115.7" y1="82.1" x2="126" y2="81.1"/>
	<line class="qz24" x1="117.1" y1="84" x2="124.7" y2="83.2"/>
</g>
<g>
	<defs>
		<circle id="SVGID_9_" cx="127.7" cy="75.2" r="4.2"/>
	</defs>
	<clipPath id="SVGID_10_">
		<use xlink:href="#SVGID_9_"  style="overflow:visible;"/>
	</clipPath>
	<line class="qz25" x1="122.8" y1="74.3" x2="132.3" y2="73.5"/>
	<line class="qz25" x1="122.8" y1="72.2" x2="132.3" y2="71.4"/>
	<line class="qz25" x1="122.8" y1="76.7" x2="133.1" y2="75.6"/>
	<line class="qz25" x1="124.2" y1="78.5" x2="131.8" y2="77.8"/>
</g>
<circle class="qz26" cx="79.4" cy="50.4" r="4.2"/>
<circle class="qz26" cx="93" cy="39" r="4.2"/>
<circle class="qz26" cx="85.8" cy="44.1" r="4.2"/>
<circle class="qz7" cx="107.9" cy="28.9" r="4.2"/>
<circle class="qz27" cx="100.3" cy="33.9" r="4.2"/>
</svg>
