<?xml version="1.0" encoding="utf-8"?>
<!DOCTYPE svg PUBLIC "-//W3C//DTD SVG 1.1//EN" "http://www.w3.org/Graphics/SVG/1.1/DTD/svg11.dtd">
<!-- Generated by geo2svg 2.3.2. https://d3js.org/d3-geo-projection/ -->
<svg version="1.1" xmlns="http://www.w3.org/2000/svg" xmlns:xlink="http://www.w3.org/1999/xlink" fill="none" stroke="black">
  <pattern id="pattern-hex" width="8" height="8" patternUnits="userSpaceOnUse" viewBox="0 0 30 30">
    <!-- Group the hexagon shapes -->
    <!-- Each path could have a class for more styling/animating options -->
    <!-- We're going to control the fill and stroke in the CSS for flexibility -->
    <g id="hexagon">
      <rect class="hexagonBackground" height="30" width="30" stroke="none"/>
      <path stroke="none" class="hexagonPatterns" d="M 30 15 L 22.5 2.01, 7.5 2.01, 0 15, 7.5 27.99, 22.5 27.99 Z"/>
    </g>
  <!--#0074E4-->
  </pattern>
  <path fill="url(#pattern-hex)" d="M353.402193,110.373104L355.569357,113.097131L357.941113,113.393134L359.449035,112.389124L360.055234,113.425134L361.426761,112.089121L362.85133,113.569136L365.132156,113.609136L364.518379,130.96931L363.321135,164.369644L365.170043,166.837668L366.336978,167.129671L369.072453,171.761718L369.762005,174.077741L368.413211,177.433774L369.754428,179.817798L371.830662,180.381804L370.731925,181.765818L372.262579,182.809828L372.830891,185.609856L372.262579,186.96587L373.452246,188.353884L374.846505,191.789918L376.308961,191.181912L375.755804,194.649946L376.892428,196.229962L375.270844,196.789968L376.293806,199.517995L373.126413,207.642076L371.663957,208.806088L371.724577,210.346103L369.974175,212.054121L371.042602,215.318153L369.307356,216.95017L369.057298,218.422184L370.68646,220.230202L370.148458,222.814228L370.731925,224.690247L369.390708,228.930289L368.004027,229.9863L367.102305,232.334323L364.018264,235.494355L366.314245,239.606396L365.314016,240.162402L361.752593,239.758398L359.138357,240.374404L347.196225,245.110451L342.066261,247.666477L340.975101,249.134491L340.027914,248.274483L343.089222,245.630456L344.665341,245.462455L346.984055,243.498435L346.044446,242.670427L340.906904,244.04644L339.5278,243.230432L341.217581,242.182422L342.573953,238.462385L341.369131,235.550356L339.148925,236.406364L337.436411,239.138391L336.064884,239.538395L335.11012,238.142381L333.390029,240.0384L334.269018,241.270413L333.246056,243.134431L336.163392,244.770448L336.678661,247.458475L336.466492,251.270513L338.34571,251.04251L338.724585,249.562496L341.020566,250.282503L333.094506,255.522555L325.517011,261.446614L321.917701,264.706647L319.705072,265.118651L309.528496,270.626706L297.783379,275.658757L297.919774,275.106751L304.406109,272.270723L303.186133,270.710707L297.934929,272.838728L297.503011,270.706707L298.753298,269.414694L296.464894,269.234692L295.66168,270.522705L290.721153,272.590726L289.849741,270.366704L288.303932,270.174702L287.864437,267.470675L285.591189,268.338683L286.985448,270.158702L287.273393,272.04272L292.668569,277.058771L287.470408,279.438794L286.076149,280.646806L283.719548,279.522795L283.704393,277.602776L282.241936,277.346773L281.249284,278.838788L281.302327,282.99083L276.907379,286.426864L275.050893,286.382864L273.398999,289.482895L269.026784,295.714957L266.745958,293.682937L263.92713,294.790948L263.101183,296.646966L263.89682,298.298983L266.882353,299.702997L264.707612,303.699037L261.866051,311.287113L259.517028,312.255123L259.57007,310.099101L254.947798,312.891129L257.493837,314.335143L261.146189,313.667137L259.69131,318.851189L258.971448,318.623186L259.069956,321.97522L257.311977,321.835218L256.417832,327.055271L258.660771,329.759298L259.107843,334.539345L259.948945,338.271383L258.948716,339.419394L260.63092,341.319413L260.168693,343.559436L261.517487,342.97943L261.290162,345.791458L262.548026,348.399484L262.585914,351.467515L266.344351,353.359534L266.306464,356.435564L262.191884,356.195562L259.638268,357.543575L259.53976,359.727597L257.508992,359.315593L253.667202,356.155562L252.788212,354.00354L247.787065,352.563526L247.620361,351.763518L242.808651,351.695517L239.626103,350.855509L237.557447,351.327513L233.170077,349.299493L231.737931,346.95147L230.987759,347.371474L228.964567,344.99945L227.623351,345.411454L225.44861,343.711437L223.175361,344.251443L220.098898,341.02741L219.348726,339.587396L216.726913,339.891399L214.597636,338.175382L211.483286,338.00338L211.452976,335.447354L209.376742,333.223332L208.740233,327.143271L207.899131,326.387264L207.345974,323.163232L204.504413,319.9832L204.587765,318.671187L202.761589,316.799168L203.739086,311.97912L203.504184,309.567096L202.284207,309.119091L201.950797,306.539065L203.049534,301.827018L201.784092,301.367014L202.390292,299.202992L200.238283,296.598966L198.927376,296.870969L196.692015,295.390954L194.396034,291.670917L192.65321,290.650907L192.478928,287.406874L191.630249,284.658847L190.001087,284.078841L189.432775,281.722817L187.818768,278.98679L184.340698,276.95877L182.309929,274.062741L182.582719,273.114731L181.233925,270.506705L181.537025,269.058691L180.324626,266.174662L180.203386,263.818638L177.64977,261.142611L177.64977,258.538585L175.497761,253.054531L174.482377,252.522525L174.29294,247.334473L171.474111,243.786438L171.034617,241.270413L165.540933,236.798368L163.737489,233.334333L161.987087,232.934329L161.471818,231.630316L159.100062,230.890309L159.766881,229.806298L159.198569,227.618276L156.690418,226.650267L156.546446,225.078251L154.394437,221.902219L152.143921,222.626226L147.415564,222.074221L143.611662,220.174202L141.391455,220.774208L140.035084,219.566196L138.01947,220.306203L135.549207,219.478195L134.495935,217.866179L130.27527,216.718167L128.638531,220.0262L125.122573,218.930189L120.038074,220.410204L119.810749,221.866219L116.037157,226.498265L114.54439,231.674317L113.513851,231.726317L112.407536,234.878349L113.316836,235.882359L110.801107,237.310373L110.119133,236.842368L107.891349,239.546395L106.186413,240.498405L105.481706,242.858429L100.912476,242.530425L99.290892,240.146401L98.775623,240.97041L96.835784,239.946399L93.895716,235.818358L89.485613,234.538345L87.947382,231.582316L82.71891,229.918299L77.801116,226.050261L76.997901,223.126231L73.663803,221.434214L69.155194,216.854169L67.889752,211.382114L65.927181,207.562076L65.768053,202.502025L66.366676,201.890019L66.412141,196.97397L62.881028,191.405914L63.11593,188.00588L62.002038,184.217842L60.744174,183.869839L60.100087,181.285813L59.024083,181.309813L57.341879,178.825788L54.932235,176.641766L50.219033,174.573746L50.256921,173.241732L46.422708,169.425694L45.581606,166.241662L41.345786,162.857629L39.27713,158.565586L37.678279,157.529575L37.314559,155.765558L33.965306,154.089541L30.911576,151.417514L30.206869,148.889489L27.486548,142.245422L25.736146,140.909409L24.644987,141.285413L21.886779,138.257383L21.129029,135.937359L22.364161,132.637326L54.432121,137.253373L70.125113,139.389394L92.365062,142.285423L118.333138,145.421454L121.962758,114.385144L126.547142,80.100801L134.29892,14.364144L135.950814,0L158.615102,2.564026L186.401777,5.492055L214.415777,8.120081L208.793275,70.912709L210.771001,70.576706L216.348038,77.532775L218.848611,77.864779L219.492698,76.548765L221.197635,76.772768L223.902801,78.356784L224.865142,75.688757L228.949412,79.820798L229.282822,83.98484L233.13219,84.804848L234.541604,84.172842L236.382935,85.620856L240.353543,87.440874L244.786377,86.97287L247.552163,90.384904L249.946652,89.340893L250.992346,87.560876L256.06169,89.332893L257.781782,88.152882L257.304399,90.796908L258.031839,93.064931L261.744812,93.784938L260.50968,96.676967L263.555833,98.516985L264.41209,98.304983L268.458472,94.468945L271.140906,95.636956L270.875693,96.916969L273.429309,96.900969L274.694751,97.904979L274.732638,100.117001L276.619435,100.381004L277.854566,98.340983L279.83987,99.148991L280.211167,97.884979L281.863061,98.172982L282.158584,100.057001L281.052269,101.257013L282.257091,103.865039L283.787745,103.837038L284.19693,101.221012L287.106688,98.824988L286.924828,97.368974L288.963174,96.596966L289.781544,99.636996L292.494287,100.061001L294.259843,101.093011L295.44951,98.532985L297.684871,99.228992L296.517937,100.553006L299.192793,101.737017L299.791415,103.345033L301.882804,103.357034L303.83022,106.381064L305.747326,103.781038L307.21736,104.593046L308.626774,103.929039L309.361791,101.745017L311.960872,101.945019L314.87063,101.281013L315.075223,100.461005L317.742501,102.293023L319.356507,102.097021L319.796002,100.593006L323.061903,100.237002L324.221259,99.152992L325.297264,100.941009L326.873383,101.461015L332.495884,101.681017L333.981073,99.00099L338.080498,100.661007L338.732163,102.421024L340.808396,102.629026L341.149384,104.03304L343.824239,106.657067L345.961093,106.04906L347.218957,108.453085L349.370966,109.337093L350.59852,108.753088L351.189565,110.301103ZM465.28391,68.552686L466.738789,69.880699L466.837296,71.432714L462.283222,73.816738L461.866459,72.156722L460.661638,72.908729L461.495162,76.532765L459.040054,78.112781L460.86623,78.132781L460.949583,79.228792L458.911236,80.340803L458.592982,78.256783L457.888274,80.888809L458.979434,83.432834L458.032247,84.240842L458.032247,87.568876L455.956013,88.692887L453.356932,88.948889L453.106875,91.772918L451.386784,92.02492L450.886669,94.164942L449.287817,92.900929L449.818242,94.95695L451.924786,95.172952L451.182191,96.404964L449.21962,95.488955L448.242123,97.308973L450.219849,98.064981L449.469677,100.105001L447.105499,100.241002L444.430643,101.641016L446.468989,103.281033L444.847405,105.181052L446.711469,108.377084L443.043961,107.99308L443.544076,110.425104L444.870138,110.077101L445.847635,111.333113L444.256361,111.98912L442.392297,110.357104L440.588853,111.121111L443.013651,113.113131L443.074271,114.03314L440.649473,114.889149L441.733055,117.129171L440.308486,119.069191L443.271286,117.99718L443.074271,119.389194L440.998038,120.229202L442.771172,121.02521L444.301826,118.701187L445.051998,119.453195L442.771172,122.01322L442.778749,123.661237L444.089656,126.221262L444.074501,128.909289L441.589082,128.773288L441.134433,129.901299L443.263709,131.629316L442.013422,133.261333L417.682085,132.777328L364.518379,130.96931L365.132156,113.609136L362.85133,113.569136L361.426761,112.089121L360.055234,113.425134L359.449035,112.389124L357.941113,113.393134L355.569357,113.097131L353.402193,110.373104L355.652709,74.904749L357.115166,53.164532L354.68279,28.240282L353.705293,17.224172L387.463034,18.452185L411.839836,19.112191L436.944078,19.536195L469.48942,19.736197L469.845562,22.464225L471.808133,23.660237L471.777823,26.068261L470.201704,28.256283L467.701131,29.904299L465.806757,32.184322L463.586551,36.03636L480.401013,35.884359L482.416626,38.308383L479.423516,40.356404L481.113297,41.192412L478.120187,43.812438L474.740624,44.408444L474.596651,45.96446L477.180577,47.796478L474.869441,48.856489L474.717891,51.452515L472.414333,50.576506L472.944757,53.304533L471.952106,55.288553L470.853369,52.856529L468.754403,55.99256L470.489649,55.080551L471.474723,55.928559L470.573001,58.500585L469.133277,58.788588L471.482301,61.572616L470.383564,61.96462L471.679316,63.484635L470.792749,64.628646L468.868065,64.580646L467.792061,67.580676L465.746137,67.056671ZM655.062277,62.812628L663.405099,59.520595L671.050792,56.124561L672.429896,56.232562L673.41497,54.628546L674.043902,55.728557L678.097862,54.936549L707.127246,54.136541L708.976155,54.200542L709.317142,57.540575L711.954111,55.280553L716.424833,60.516605L716.326325,64.312643L739.270981,62.768628L745.916444,62.220622L752.40278,67.620676L778.870971,90.212902L774.733658,92.148921L772.06638,94.396944L768.80048,98.472985L765.633087,103.565036L764.284292,107.225072L763.852375,113.901139L760.624362,116.829168L759.775683,119.741197L756.206683,120.309203L755.312538,119.309193L753.031712,122.197222L754.297154,123.529235L751.205536,125.677257L750.569026,127.149271L746.916673,129.729297L746.628729,131.521315L743.529533,134.289343L740.468225,135.149351L735.126091,139.301393L734.307721,138.709387L731.132751,139.593396L732.76949,142.333423L732.31484,144.577446L727.639526,147.197472L725.911857,146.705467L726.737804,148.289483L725.411742,150.645506L722.130687,152.613526L720.69854,154.593546L718.000952,153.061531L715.060884,152.921529L714.682009,150.553506L713.492342,148.705487L714.378909,147.233472L711.719208,143.00543L712.098083,141.629416L710.726556,140.0494L706.301299,137.797378L705.005548,134.417344L704.975238,130.617306L702.406467,126.98127L702.520129,124.581246L699.019326,122.01322L696.533908,121.505215L694.874437,120.241202L694.594069,118.385184L692.426906,117.713177L691.729776,115.417154L689.44895,113.717137L690.161234,111.357114L688.122888,110.0251L686.327022,107.629076L682.1594,105.741057L680.530238,101.873019L679.014739,100.409004L675.604866,98.580986L673.043673,96.360964L671.922204,96.212962L670.679494,93.524935L668.315316,90.380904L667.148382,89.780898L666.132997,86.064861L663.579381,82.97683L662.707969,80.052801L661.541035,79.196792L658.873757,79.804798L657.093045,78.948789L654.501542,75.808758L652.561703,75.656757L649.189718,72.452725L651.758489,67.03667L654.69098,64.864649ZM589.327506,66.648666L590.070101,70.668707L594.017976,89.208892L601.754598,127.305273L603.899029,136.885369L605.187203,138.04538L605.497881,140.873409L606.945182,144.325443L608.975951,146.777468L609.566996,149.669497L609.089613,152.633526L612.241851,154.465545L607.755974,158.829588L608.043919,160.561606L607.551382,165.165652L606.111658,166.793668L606.626928,173.209732L608.597076,175.613756L609.142656,178.073781L608.422794,180.525805L607.627157,186.649866L607.839327,189.721897L609.930715,192.213922L610.999142,195.677957L582.59869,197.053971L564.617294,197.597976L539.55094,198.141981L539.831307,199.177992L538.649218,202.450025L541.627174,206.462065L545.074934,208.530085L545.453809,210.474105L544.006507,213.786138L546.355531,216.350164L544.355072,217.798178L542.286416,221.466215L538.414316,222.558226L533.435902,223.386234L530.003296,223.374234L530.708003,222.318223L532.746349,222.99023L535.716728,221.570216L533.072182,218.498185L531.367245,217.326173L530.541298,215.114151L531.488485,212.866129L530.632228,209.606096L528.321092,208.342083L527.093538,209.862099L526.009956,214.266143L525.896294,218.658187L525.138544,220.814208L523.592735,220.650207L522.872873,219.03819L519.220521,217.886179L517.909614,218.570186L515.083208,169.333693L517.060934,146.99747L520.258637,108.917089L523.660933,71.504715L522.175744,70.584706L520.910302,68.184682L520.82695,67.784678L556.865517,67.512675ZM655.062277,62.812628L654.69098,64.864649L651.758489,67.03667L649.189718,72.452725L652.561703,75.656757L654.501542,75.808758L657.093045,78.948789L658.873757,79.804798L661.541035,79.196792L662.707969,80.052801L663.579381,82.97683L666.132997,86.064861L667.148382,89.780898L668.315316,90.380904L670.679494,93.524935L671.922204,96.212962L673.043673,96.360964L675.604866,98.580986L679.014739,100.409004L680.530238,101.873019L682.1594,105.741057L686.327022,107.629076L688.122888,110.0251L690.161234,111.357114L689.44895,113.717137L691.729776,115.417154L692.426906,117.713177L694.594069,118.385184L694.874437,120.241202L696.533908,121.505215L699.019326,122.01322L702.520129,124.581246L702.406467,126.98127L704.975238,130.617306L705.005548,134.417344L706.301299,137.797378L710.726556,140.0494L712.098083,141.629416L711.719208,143.00543L714.378909,147.233472L713.492342,148.705487L714.682009,150.553506L715.060884,152.921529L718.000952,153.061531L720.69854,154.593546L722.562604,155.197552L722.176152,157.00957L719.008759,158.369584L720.387863,159.125591L718.963294,160.921609L717.67512,160.501605L717.864557,162.501625L715.265476,166.333663L715.765591,168.685687L714.772939,171.173712L712.476958,171.533715L714.719896,172.149721L712.719438,176.777768L713.219552,180.95781L709.5672,185.945859L709.453537,189.129891L707.634938,190.881909L709.377762,191.173912L710.067314,192.697927L708.968578,198.00598L709.77937,199.201992L701.830577,198.653987L695.594299,196.325963L694.624379,198.141981L693.055838,198.99799L692.964908,202.210022L694.389477,205.118051L693.730235,209.306093L693.95756,211.414114L690.547687,212.134121L689.191315,210.618106L689.14585,208.02208L687.963761,206.414064L688.60027,205.358054L615.219807,204.922049L613.78766,203.622036L612.810164,199.257993L610.999142,195.677957L609.930715,192.213922L607.839327,189.721897L607.627157,186.649866L608.422794,180.525805L609.142656,178.073781L608.597076,175.613756L606.626928,173.209732L606.111658,166.793668L607.551382,165.165652L608.043919,160.561606L607.755974,158.829588L612.241851,154.465545L609.089613,152.633526L609.566996,149.669497L608.975951,146.777468L606.945182,144.325443L605.497881,140.873409L605.187203,138.04538L603.899029,136.885369L601.754598,127.305273L594.017976,89.208892L590.070101,70.668707L589.327506,66.648666L641.6198,64.072641L641.604645,63.892639ZM520.910302,68.184682L522.175744,70.584706L523.660933,71.504715L520.258637,108.917089L517.060934,146.99747L515.083208,169.333693L517.909614,218.570186L515.818225,220.646206L511.984013,218.96219L508.111913,219.822198L505.452212,217.690177L499.352328,219.094191L493.820757,221.290213L492.017313,221.498215L489.531894,223.03823L488.236143,225.03425L486.644869,225.390254L484.106408,224.074241L483.712378,220.302203L482.204457,218.126181L482.212034,216.626166L479.870588,214.626146L477.657959,209.494095L478.158074,205.838058L479.302276,204.518045L480.939015,198.97399L480.249463,198.697987L458.358079,198.737987L428.373931,198.453985L430.328924,197.293973L428.927088,194.945949L429.61664,191.869919L428.480016,189.709897L431.753494,189.505895L432.041438,188.209882L430.412277,186.149861L431.139716,184.369844L432.170256,186.585866L433.268993,185.98186L431.965663,183.99384L431.988396,181.133811L434.860267,180.0338L434.458659,179.04979L432.321806,179.065791L432.617328,177.485775L435.125479,178.293783L435.261874,175.333753L436.716753,171.061711L438.906649,170.369704L441.248095,168.665687L441.058658,167.245672L444.135121,165.469655L444.006303,164.457645L446.165889,160.753608L444.665545,160.121601L444.786785,161.97362L441.733055,161.613616L441.770942,159.613596L445.211125,158.125581L446.711469,159.137591L446.840287,156.465565L448.67404,154.98955L446.476567,154.497545L447.234316,151.901519L443.794133,151.101511L443.816866,148.109481L445.688507,150.213502L446.340172,149.393494L444.180586,147.877479L446.302284,145.741457L443.127314,146.941469L442.255902,145.109451L444.764053,142.305423L442.240747,141.797418L442.164972,139.189392L444.551883,137.04937L444.142698,134.189342L442.831792,134.065341L442.922721,135.785358L440.876798,136.185362L442.013422,133.261333L443.263709,131.629316L441.134433,129.901299L441.589082,128.773288L444.074501,128.909289L444.089656,126.221262L442.778749,123.661237L442.771172,122.01322L445.051998,119.453195L444.301826,118.701187L442.771172,121.02521L440.998038,120.229202L443.074271,119.389194L443.271286,117.99718L440.308486,119.069191L441.733055,117.129171L440.649473,114.889149L443.074271,114.03314L443.013651,113.113131L440.588853,111.121111L442.392297,110.357104L444.256361,111.98912L445.847635,111.333113L444.870138,110.077101L443.544076,110.425104L443.043961,107.99308L446.711469,108.377084L444.847405,105.181052L446.468989,103.281033L444.430643,101.641016L447.105499,100.241002L449.469677,100.105001L450.219849,98.064981L448.242123,97.308973L449.21962,95.488955L451.182191,96.404964L451.924786,95.172952L449.818242,94.95695L449.287817,92.900929L450.886669,94.164942L451.386784,92.02492L453.106875,91.772918L453.356932,88.948889L455.956013,88.692887L458.032247,87.568876L458.032247,84.240842L458.979434,83.432834L457.888274,80.888809L458.592982,78.256783L458.911236,80.340803L460.949583,79.228792L460.86623,78.132781L459.040054,78.112781L461.495162,76.532765L460.661638,72.908729L461.866459,72.156722L462.283222,73.816738L466.837296,71.432714L466.738789,69.880699L465.28391,68.552686L490.509391,68.576686ZM364.518379,130.96931L417.682085,132.777328L442.013422,133.261333L440.876798,136.185362L442.922721,135.785358L442.831792,134.065341L444.142698,134.189342L444.551883,137.04937L442.164972,139.189392L442.240747,141.797418L444.764053,142.305423L442.255902,145.109451L443.127314,146.941469L446.302284,145.741457L444.180586,147.877479L446.340172,149.393494L445.688507,150.213502L443.816866,148.109481L443.794133,151.101511L447.234316,151.901519L446.476567,154.497545L448.67404,154.98955L446.840287,156.465565L446.711469,159.137591L445.211125,158.125581L441.770942,159.613596L441.733055,161.613616L444.786785,161.97362L444.665545,160.121601L446.165889,160.753608L444.006303,164.457645L444.135121,165.469655L441.058658,167.245672L441.248095,168.665687L438.906649,170.369704L436.716753,171.061711L435.261874,175.333753L435.125479,178.293783L432.617328,177.485775L432.321806,179.065791L434.458659,179.04979L434.860267,180.0338L431.988396,181.133811L431.965663,183.99384L433.268993,185.98186L432.170256,186.585866L431.139716,184.369844L430.412277,186.149861L432.041438,188.209882L431.753494,189.505895L428.480016,189.709897L429.61664,191.869919L428.927088,194.945949L430.328924,197.293973L428.373931,198.453985L458.358079,198.737987L480.249463,198.697987L480.939015,198.97399L479.302276,204.518045L478.158074,205.838058L477.657959,209.494095L479.870588,214.626146L482.212034,216.626166L482.204457,218.126181L483.712378,220.302203L484.106408,224.074241L486.644869,225.390254L484.023055,226.246262L481.022367,229.322293L481.340622,230.450305L478.673344,229.930299L477.582184,231.138311L477.870129,232.97433L480.476788,233.118331L481.461862,235.314353L484.636833,235.210352L485.091482,231.514315L487.508703,229.9943L487.842113,228.750288L490.895844,230.118301L489.221217,231.062311L490.721561,232.494325L491.039816,234.198342L492.502273,233.810338L493.661629,231.498315L495.199861,232.174322L494.851296,233.718337L492.320413,234.97835L494.214786,235.710357L490.615476,236.566366L492.820527,239.226392L490.562434,238.202382L489.509162,241.178412L486.546361,239.690397L483.166798,239.514395L483.356236,240.770408L486.455431,242.086421L486.417544,242.790428L483.219841,242.01042L482.249922,243.582436L482.484824,246.302463L484.204915,247.826478L486.887349,248.96649L487.213181,251.358514L492.062778,251.378514L491.858185,252.558526L493.767714,252.390524L494.389069,253.630536L495.889413,252.530525L499.132581,257.458575L500.640502,256.622566L501.489182,258.01458L499.882753,261.638616L498.094464,261.626616L497.223052,263.886639L495.358988,262.178622L493.396417,262.218622L489.766797,266.314663L491.896073,262.466625L490.198714,261.122611L490.001699,259.614596L487.569323,256.742567L481.249692,254.118541L477.718579,253.730537L478.453596,251.742517L478.006524,248.698487L473.36152,249.102491L471.823288,250.758508L472.800785,254.738547L470.057732,254.238542L471.391371,257.102571L473.732817,255.458555L474.664849,255.702557L468.602853,260.506605L466.140167,260.930609L465.04143,255.642556L463.457733,254.446544L462.139249,257.01857L460.760145,256.750568L459.464393,254.578546L456.971398,255.902559L458.070134,257.362574L455.531673,257.462575L455.274039,259.730597L452.902283,259.934599L449.621227,261.598616L446.476567,257.99858L442.710552,257.754578L441.823985,256.842568L437.648785,255.710557L435.625594,253.346533L437.277488,253.342533L439.406764,249.870499L437.951885,248.326483L432.571863,245.922459L430.056135,246.790468L429.987937,243.01443L427.009982,243.01843L428.214803,239.698397L423.857744,239.402394L421.531453,240.614406L420.940408,239.214392L421.705735,237.582376L420.99345,236.322363L416.621236,237.98238L413.590238,240.058401L414.347987,242.99043L416.795518,242.850429L419.265782,243.566436L422.0543,243.03443L425.668765,245.498455L422.546837,248.066481L415.931684,244.502445L413.226518,244.406444L408.967966,245.942459L399.344547,243.97844L389.812058,239.358394L384.318374,237.470375L380.067399,237.858379L375.824002,237.414374L368.360169,238.426384L366.314245,239.606396L364.018264,235.494355L367.102305,232.334323L368.004027,229.9863L369.390708,228.930289L370.731925,224.690247L370.148458,222.814228L370.68646,220.230202L369.057298,218.422184L369.307356,216.95017L371.042602,215.318153L369.974175,212.054121L371.724577,210.346103L371.663957,208.806088L373.126413,207.642076L376.293806,199.517995L375.270844,196.789968L376.892428,196.229962L375.755804,194.649946L376.308961,191.181912L374.846505,191.789918L373.452246,188.353884L372.262579,186.96587L372.830891,185.609856L372.262579,182.809828L370.731925,181.765818L371.830662,180.381804L369.754428,179.817798L368.413211,177.433774L369.762005,174.077741L369.072453,171.761718L366.336978,167.129671L365.170043,166.837668L363.321135,164.369644ZM709.77937,199.201992L709.832412,203.150032L711.696476,209.286093L711.976843,212.314123L716.940102,228.626286L720.198425,236.130361L726.957551,249.254493L735.194288,261.302613L739.233093,266.254663L741.013805,270.330703L739.058811,273.542735L739.233093,276.486765L741.066847,282.718827L746.992448,293.254933L751.182803,303.619036L754.880621,310.475105L757.085672,315.467155L759.715063,322.95923L760.154558,329.511295L759.866613,340.519405L759.51047,346.115461L759.942388,354.931549L759.305878,359.895599L759.116441,357.879579L757.881309,357.319573L756.562825,358.535585L754.501746,365.747657L755.82023,369.319693L750.803928,375.795758L748.553412,374.715747L747.424366,376.851769L744.916215,378.207782L740.581887,377.371774L739.195206,378.719787L733.800029,379.915799L731.056976,376.699767L731.382808,373.267733L732.201178,372.511725L730.549284,368.855689L729.20049,367.551676L727.859273,363.611636L725.048022,361.071611L724.441823,357.799578L722.327702,356.479565L715.401871,355.96356L714.522882,357.531575L712.431493,354.327543L712.386028,352.98753L710.711401,350.091501L709.23379,343.307433L708.013813,340.795408L704.641828,337.699377L701.042518,337.411374L698.723804,330.739307L700.951588,331.871319L701.716915,327.487275L701.588097,325.227252L700.246881,323.787238L700.648488,322.375224L698.026674,324.371244L699.064791,328.04728L696.511175,328.339283L695.874666,330.519305L694.927479,327.051271L689.926332,319.803198L688.850328,317.251173L685.932992,312.347123L682.091202,307.815078L680.378688,305.02305L682.371569,305.363054L684.84941,302.651027L686.614967,298.926989L688.668468,296.526965L686.023922,294.866949L683.311179,296.578966L682.674669,299.446994L680.901535,299.967L676.620251,294.158942L677.71141,291.462915L678.19637,287.646876L677.43862,284.322843L678.605554,282.446824L679.848264,276.142761L680.636323,275.050751L680.954578,267.01467L680.552971,260.938609L679.037472,260.338603L676.817265,257.462575L676.733913,255.546555L674.831962,252.302523L669.11853,252.430524L667.762159,251.706517L667.292354,249.362494L664.875133,247.558476L663.192929,244.538445L660.934836,243.882439L658.062965,241.702417L657.487075,237.270373L653.258833,234.826348L650.561245,230.074301L646.64368,227.398274L642.263887,225.606256L640.119456,223.754238L636.724738,224.118241L635.572959,224.866249L632.564694,224.334243L632.329791,225.470255L630.299023,225.506255L630.829447,230.758308L627.540814,229.9663L623.933927,231.646316L616.674686,236.450365L612.302471,237.650377L609.938293,237.582376L605.793403,239.00639L604.346101,238.314383L604.368834,234.882349L602.542658,231.99432L600.792256,230.434304L598.859995,230.058301L596.162407,227.426274L592.600984,225.678257L590.456553,223.842238L586.584453,221.550216L577.938531,218.338183L573.270794,217.422174L566.723838,217.050171L560.176882,217.822178L551.599157,219.814198L547.484578,220.182202L542.286416,221.466215L544.355072,217.798178L546.355531,216.350164L544.006507,213.786138L545.453809,210.474105L545.074934,208.530085L541.627174,206.462065L538.649218,202.450025L539.831307,199.177992L539.55094,198.141981L564.617294,197.597976L582.59869,197.053971L610.999142,195.677957L612.810164,199.257993L613.78766,203.622036L615.219807,204.922049L688.60027,205.358054L687.963761,206.414064L689.14585,208.02208L689.191315,210.618106L690.547687,212.134121L693.95756,211.414114L693.730235,209.306093L694.389477,205.118051L692.964908,202.210022L693.055838,198.99799L694.624379,198.141981L695.594299,196.325963L701.830577,198.653987ZM520.448075,223.582236L524.865754,222.594226L526.843481,222.702227ZM512.650832,223.97824L507.520868,223.178232L508.93786,222.96623ZM503.027413,242.398424L505.596184,237.158372L505.103647,239.262393ZM611.703849,241.786418L610.355055,240.590406L606.869407,239.054391L610.0368,238.586386ZM279.77925,286.926869L280.309675,284.99085L283.56042,284.374844L286.970293,281.302813L292.441245,280.182802L287.750775,282.454825L282.939066,285.498855L277.149859,290.322903L273.785451,294.154942L269.337462,300.523005L266.404971,305.767058L264.07868,310.923109L262.646533,315.691157L261.835741,323.131231L262.017601,326.699267L262.934478,332.375324L264.851585,340.403404L265.836659,346.151462L266.117026,352.763528L265.435052,344.739447L263.790735,337.795378L263.313353,337.571376L261.646304,331.643316L261.214387,327.771278L261.866051,316.99917L263.252733,310.0431L266.117026,304.871049L266.700493,302.99903L270.671101,297.266973L270.610481,295.722957L273.201984,294.858949L275.48281,290.054901L278.559273,286.226862ZM701.322885,339.731397L698.829889,338.235382L698.920819,337.435374L701.542632,338.735387L703.687063,338.683387ZM757.547899,370.575706L754.456281,377.735777L751.955708,380.103801L749.424824,383.811838L743.317363,388.691887L743.271898,388.04388L746.780279,385.863859L749.288429,383.551836L753.819772,377.227772L755.426201,372.559726L758.646636,368.219682ZM734.307721,393.783938L733.724254,393.171932L736.656745,392.083921L740.536423,389.863899L736.694632,392.667927ZM714.015189,400L715.363983,398.807988L719.054224,397.095971L720.948597,394.659947L721.971559,394.95195L724.08568,392.655927L729.730914,395.087951L726.093717,396.651967L723.161226,395.591956L722.418632,397.00397L717.659965,399.283993Z"></path>
</svg>
